<svg width="27" height="27" viewBox="0 0 27 27" fill="none" xmlns="http://www.w3.org/2000/svg">
<path d="M7.875 24.75C7.25625 24.75 6.72656 24.5297 6.28594 24.0891C5.84531 23.6484 5.625 23.1187 5.625 22.5C5.625 21.8813 5.84531 21.3516 6.28594 20.9109C6.72656 20.4703 7.25625 20.25 7.875 20.25C8.49375 20.25 9.02344 20.4703 9.46406 20.9109C9.90469 21.3516 10.125 21.8813 10.125 22.5C10.125 23.1187 9.90469 23.6484 9.46406 24.0891C9.02344 24.5297 8.49375 24.75 7.875 24.75ZM19.125 24.75C18.5063 24.75 17.9766 24.5297 17.5359 24.0891C17.0953 23.6484 16.875 23.1187 16.875 22.5C16.875 21.8813 17.0953 21.3516 17.5359 20.9109C17.9766 20.4703 18.5063 20.25 19.125 20.25C19.7437 20.25 20.2734 20.4703 20.7141 20.9109C21.1547 21.3516 21.375 21.8813 21.375 22.5C21.375 23.1187 21.1547 23.6484 20.7141 24.0891C20.2734 24.5297 19.7437 24.75 19.125 24.75ZM6.91875 6.75L9.61875 12.375H17.4937L20.5875 6.75H6.91875ZM5.85 4.5H22.4438C22.875 4.5 23.2031 4.69219 23.4281 5.07656C23.6531 5.46094 23.6625 5.85 23.4562 6.24375L19.4625 13.4437C19.2563 13.8187 18.9797 14.1094 18.6328 14.3156C18.2859 14.5219 17.9062 14.625 17.4937 14.625H9.1125L7.875 16.875H21.375V19.125H7.875C7.03125 19.125 6.39375 18.7547 5.9625 18.0141C5.53125 17.2734 5.5125 16.5375 5.90625 15.8062L7.425 13.05L3.375 4.5H1.125V2.25H4.78125L5.85 4.5Z" fill="white"/>
</svg>
