<svg width="14" height="16" viewBox="0 0 14 16" fill="none" xmlns="http://www.w3.org/2000/svg">
<path d="M12.1469 4.77125L13.0244 3.89937C13.0768 3.84693 13.1184 3.78467 13.1468 3.71614C13.1752 3.64762 13.1898 3.57417 13.1898 3.5C13.1898 3.42583 13.1752 3.35238 13.1468 3.28386C13.1184 3.21533 13.0768 3.15307 13.0244 3.10063C12.9719 3.04818 12.9097 3.00658 12.8411 2.97819C12.7726 2.94981 12.6992 2.9352 12.625 2.9352C12.5508 2.9352 12.4774 2.94981 12.4089 2.97819C12.3403 3.00658 12.2781 3.04818 12.2256 3.10063L11.3537 3.97813C10.2862 3.06898 8.96002 2.51806 7.5625 2.40313V1.25H8.6875C8.83668 1.25 8.97976 1.19074 9.08524 1.08525C9.19073 0.979758 9.25 0.836684 9.25 0.6875C9.25 0.538316 9.19073 0.395242 9.08524 0.289752C8.97976 0.184263 8.83668 0.125 8.6875 0.125H5.3125C5.16331 0.125 5.02024 0.184263 4.91475 0.289752C4.80926 0.395242 4.75 0.538316 4.75 0.6875C4.75 0.836684 4.80926 0.979758 4.91475 1.08525C5.02024 1.19074 5.16331 1.25 5.3125 1.25H6.4375V2.40313C4.92896 2.52771 3.50609 3.15571 2.39742 4.18627C1.28875 5.21683 0.558649 6.59012 0.324383 8.08555C0.0901176 9.58098 0.365288 11.1117 1.10569 12.432C1.8461 13.7522 3.00877 14.7852 4.40693 15.3652C5.8051 15.9451 7.35761 16.0382 8.81509 15.6297C10.2726 15.2211 11.5504 14.3345 12.4434 13.1122C13.3363 11.89 13.7926 10.4031 13.7388 8.89043C13.685 7.37772 13.1244 5.92698 12.1469 4.77125ZM7 14.75C5.88748 14.75 4.79994 14.4201 3.87491 13.802C2.94989 13.1839 2.22892 12.3054 1.80317 11.2776C1.37743 10.2498 1.26604 9.11876 1.48308 8.02762C1.70012 6.93647 2.23585 5.93419 3.02252 5.14752C3.80919 4.36085 4.81147 3.82512 5.90261 3.60808C6.99376 3.39104 8.12476 3.50243 9.15259 3.92818C10.1804 4.35392 11.0589 5.07489 11.677 5.99992C12.2951 6.92494 12.625 8.01248 12.625 9.125C12.625 9.86369 12.4795 10.5951 12.1968 11.2776C11.9141 11.9601 11.4998 12.5801 10.9775 13.1025C10.4551 13.6248 9.83505 14.0391 9.15259 14.3218C8.47013 14.6045 7.73868 14.75 7 14.75Z" fill="white"/>
<path d="M7.56251 8.89438V5.75C7.56251 5.60082 7.50325 5.45774 7.39776 5.35225C7.29227 5.24676 7.14919 5.1875 7.00001 5.1875C6.85083 5.1875 6.70775 5.24676 6.60226 5.35225C6.49677 5.45774 6.43751 5.60082 6.43751 5.75V9.125C6.43708 9.19903 6.45127 9.27241 6.47926 9.34095C6.50726 9.40948 6.5485 9.47181 6.60063 9.52437L8.28813 11.2119C8.34043 11.2646 8.40264 11.3064 8.47118 11.335C8.53973 11.3636 8.61325 11.3783 8.68751 11.3783C8.76177 11.3783 8.83529 11.3636 8.90383 11.335C8.97238 11.3064 9.03459 11.2646 9.08688 11.2119C9.13961 11.1596 9.18145 11.0974 9.21001 11.0288C9.23857 10.9603 9.25327 10.8868 9.25327 10.8125C9.25327 10.7382 9.23857 10.6647 9.21001 10.5962C9.18145 10.5276 9.13961 10.4654 9.08688 10.4131L7.56251 8.89438Z" fill="white"/>
</svg>
