<svg width="24" height="28" viewBox="0 0 24 28" fill="none" xmlns="http://www.w3.org/2000/svg">
<path fill-rule="evenodd" clip-rule="evenodd" d="M12.0284 0.247253C9.03946 0.251001 6.17396 1.43968 4.06003 3.55273C1.9461 5.66577 0.756221 8.53078 0.751221 11.5197C0.751221 15.8331 3.4772 19.7638 6.07563 22.6835C8.67405 25.6032 11.2725 27.5496 11.2725 27.5496C11.4892 27.7122 11.7528 27.8 12.0237 27.8C12.2945 27.8 12.5581 27.7122 12.7748 27.5496C12.7748 27.5496 15.3733 25.6032 17.9717 22.6835C20.5701 19.7638 23.2961 15.8331 23.2961 11.5197C23.2936 8.53083 22.1052 5.66509 19.9917 3.55164C17.8783 1.43819 15.0173 0.249756 12.0284 0.247253ZM12.0237 6.51182C13.3518 6.51182 14.6256 7.03943 15.5648 7.97859C16.5039 8.91775 17.0315 10.1915 17.0315 11.5197C17.0315 12.8479 16.5039 14.1216 15.5648 15.0608C14.6256 16 13.3518 16.5276 12.0237 16.5276C10.6955 16.5276 9.42172 16 8.48256 15.0608C7.5434 14.1216 7.01579 12.8479 7.01579 11.5197C7.01579 10.1915 7.5434 8.91775 8.48256 7.97859C9.42172 7.03943 10.6955 6.51182 12.0237 6.51182Z" fill="#262626"/>
</svg>
