<svg width="28" height="30" viewBox="0 0 28 30" fill="none" xmlns="http://www.w3.org/2000/svg">
<path d="M14 0C9.63834 0 6.08984 3.5485 6.08984 7.91016C6.08984 12.2718 9.63834 15.8203 14 15.8203C18.3617 15.8203 21.9102 12.2718 21.9102 7.91016C21.9102 3.5485 18.3617 0 14 0ZM23.8418 20.988C21.6761 18.7891 18.8052 17.5781 15.7578 17.5781H12.2422C9.19484 17.5781 6.32387 18.7891 4.15824 20.988C2.00322 23.1761 0.816406 26.0644 0.816406 29.1211C0.816406 29.6065 1.20992 30 1.69531 30H26.3047C26.7901 30 27.1836 29.6065 27.1836 29.1211C27.1836 26.0644 25.9968 23.1761 23.8418 20.988Z" fill="#262626"/>
</svg>
