<svg width="114" height="90" viewBox="0 0 114 90" fill="none" xmlns="http://www.w3.org/2000/svg">
<path fill-rule="evenodd" clip-rule="evenodd" d="M23.0007 51.2111H18.3044V68.0489H24.1628C21.7585 67.4476 20.3801 65.5393 20.3801 62.6849V56.1422C20.3801 53.7929 21.3337 52.085 23.0007 51.2191M33.5794 51.2191H28.8591C30.526 52.085 31.4797 53.7929 31.4797 56.1422V62.6849C31.4797 65.5312 30.0853 67.4395 27.705 68.0489H33.5794V51.2191ZM23.746 59.6941V56.1422C23.746 54.6508 24.4352 53.7367 25.9419 53.7367C27.4486 53.7367 28.1057 54.6348 28.1057 56.1422V62.6849C28.1057 64.1762 27.4406 65.0903 25.9419 65.0903C24.4433 65.0903 23.746 64.2003 23.746 62.6849V59.6941ZM83.644 72.1221V76.3636C83.6628 76.6853 83.6156 77.0074 83.5055 77.3102C83.3954 77.6129 83.2245 77.89 83.0035 78.1244C82.7825 78.3588 82.516 78.5455 82.2203 78.6731C81.9246 78.8007 81.6059 78.8666 81.2839 78.8666C80.9618 78.8666 80.6432 78.8007 80.3474 78.6731C80.0517 78.5455 79.7852 78.3588 79.5642 78.1244C79.3432 77.89 79.1724 77.6129 79.0622 77.3102C78.9521 77.0074 78.9049 76.6853 78.9237 76.3636V72.1221H75.5497V76.3636C75.5497 79.8675 77.8498 81.9361 81.2959 81.9361C82.0235 81.9408 82.7476 81.8354 83.4437 81.6234L83.6521 81.5592V83.8284C83.6521 85.023 83.2594 86.0493 81.8969 86.0493C80.5345 86.0493 79.9415 85.2476 79.8453 83.8604V83.684H76.5755V83.8845C76.6877 87.204 78.523 89.2325 81.9049 89.2325C85.2869 89.2325 87.026 87.0997 87.026 83.8284V72.1221H83.644ZM65.3316 72.1221H62.1259V89.2325H65.3316V83.9165L66.9906 81.6795L70.9576 89.1203L74.58 89.016L69.0101 78.6808L73.6503 72.2664H70.0199L65.3396 78.7369L65.3316 72.1221ZM48.8545 72.1221V89.2004H55.6345C58.5436 89.2004 60.0663 86.8752 60.0663 84.1651C60.1201 83.4225 59.9629 82.6798 59.6126 82.0229C59.2623 81.3659 58.7333 80.8216 58.0868 80.4528L57.8223 80.3165L58.0868 80.1721C58.6455 79.8018 59.1011 79.2956 59.4109 78.701C59.7206 78.1064 59.8745 77.4428 59.8579 76.7725C59.8579 73.9582 58.2551 72.1221 55.378 72.1221H48.8545ZM56.8686 83.9967C56.8997 84.2897 56.8677 84.586 56.7746 84.8656C56.6815 85.1452 56.5296 85.4015 56.3291 85.6173C56.1285 85.8331 55.8841 86.0034 55.6122 86.1167C55.3403 86.2299 55.0473 86.2835 54.7529 86.2738H52.1243V81.7437H54.793C55.0832 81.7365 55.3716 81.7912 55.639 81.9042C55.9064 82.0172 56.1466 82.1859 56.3438 82.3991C56.5409 82.6122 56.6904 82.865 56.7823 83.1404C56.8742 83.4159 56.9064 83.7078 56.8767 83.9967H56.8686ZM56.6603 76.9168C56.6853 77.1998 56.6487 77.4847 56.553 77.7521C56.4573 78.0195 56.3048 78.263 56.1059 78.4657C55.9071 78.6685 55.6667 78.8257 55.4013 78.9265C55.1359 79.0273 54.8518 79.0693 54.5686 79.0496H52.1243V74.784H54.5686C54.8524 74.7632 55.1374 74.8043 55.4038 74.9045C55.6702 75.0048 55.9116 75.1618 56.1114 75.3647C56.3111 75.5676 56.4643 75.8114 56.5605 76.0795C56.6567 76.3475 56.6935 76.6332 56.6683 76.9168H56.6603ZM59.1046 68.097H62.3103V51.2592H59.0565L55.6665 60.4238L51.9319 51.2752H48.7262V68.113H51.9319L51.7796 58.315L54.7609 64.4889H56.3157L59.2969 58.3471L59.1046 68.097ZM72.897 67.9928H76.271V56.1341C76.271 52.6463 74.1713 50.5616 70.7332 50.5616C67.2951 50.5616 65.1713 52.6302 65.1713 56.1341V67.9687H68.5453V63.8074H72.897V67.9928ZM68.5453 60.7766V56.1341C68.5453 54.6428 69.2345 53.7287 70.7332 53.7287C72.2318 53.7287 72.897 54.6267 72.897 56.1341V60.7766H68.5453ZM109.818 89.1924H113.184V77.3578C113.184 73.862 111.093 71.7452 107.647 71.7452C104.2 71.7452 102.093 73.8139 102.093 77.3578V89.1924H105.459V85.023H109.818V89.1924ZM105.459 81.9762V77.3418C105.459 75.8424 106.148 74.9364 107.647 74.9364C109.145 74.9364 109.818 75.8344 109.818 77.3418V81.9762H105.459ZM89.1257 54.3301V51.195H78.4348V54.3301H82.1133V68.0409H85.4632V54.3461L89.1257 54.3301ZM100.057 83.676H96.7873V83.8524C96.6911 85.2155 96.2023 86.0413 94.7276 86.0413C93.253 86.0413 92.9726 85.015 92.9726 83.8203V77.2616C92.9726 76.091 93.3252 74.9925 94.7036 74.9925C96.082 74.9925 96.635 75.8745 96.7152 77.2215V77.4059H99.993V77.2055C99.8567 73.9181 98.1417 71.8094 94.7357 71.8094C91.3296 71.8094 89.6146 73.9742 89.6146 77.2616V83.8284C89.6146 87.0997 91.3697 89.2325 94.7357 89.2325C98.1016 89.2325 99.9449 87.204 100.065 83.8845L100.057 83.676ZM6.15489 69.3799H9.48077V67.8645H9.64909C13.4398 67.8645 15.6357 65.0983 15.6357 61.4501V57.842C15.6357 54.1938 13.4719 51.2832 9.64909 51.2672H9.48077V49.8721H6.15489V51.2672H5.9866C2.16383 51.2672 0 54.1938 0 57.842V61.4501C0 65.1063 2.19589 67.8645 5.9866 67.8645H6.15489V69.3799ZM6.15489 64.6252H5.90645C3.97503 64.6252 3.38998 63.1178 3.38998 61.418V57.8099C3.38998 56.1261 3.93496 54.4744 5.90645 54.4744H6.18695L6.15489 64.6252ZM9.48077 64.6252V54.4904H9.73723C11.7247 54.4904 12.2777 56.094 12.2777 57.8259V61.434C12.2777 63.1419 11.6847 64.6413 9.73723 64.6413L9.48077 64.6252ZM36.4245 51.2111V68.0489H39.7023V62.5325H41.1689C44.6871 62.5325 46.6265 60.3436 46.6265 56.9199C46.6265 53.4962 44.6951 51.2512 41.1689 51.2512L36.4245 51.2111ZM39.7023 54.3461H41.1689C42.7717 54.3461 43.3006 55.4125 43.3006 56.8798C43.3006 58.3471 42.7877 59.4055 41.1689 59.4055H39.7183L39.7023 54.3461ZM73.2897 25.6176C72.6766 24.7532 72.013 23.9259 71.3022 23.14L67.5035 23.3244C67.5035 25.5935 71.4144 25.0483 71.4545 25.0563C72.0775 25.2043 72.6905 25.3917 73.2897 25.6176ZM60.9639 0H48.6942V24.1743C51.8037 22.7551 54.9292 22.4023 57.7181 21.2237C57.886 21.1867 58.0518 21.1413 58.215 21.0874C56.8607 20.5541 55.6891 19.6409 54.8411 18.4575C54.466 18.0121 54.1972 17.4873 54.0547 16.9227C53.9123 16.358 53.9001 15.7684 54.019 15.1984C54.1379 14.6283 54.3848 14.0928 54.741 13.6322C55.0972 13.1717 55.5535 12.7983 56.0752 12.5402C56.6923 12.1713 57.3735 11.8987 58.0227 11.586C59.0806 11.0809 60.1785 10.6319 61.2284 10.0466C64.1455 8.36279 64.9229 5.36405 63.1357 2.50162C62.4779 1.61253 61.7517 0.77613 60.9639 0ZM69.7795 47.2101H88.8853V0H61.2043C62.4114 0.318239 63.5305 0.906472 64.4773 1.72037C65.4241 2.53427 66.1738 3.55258 66.67 4.69855C67.4389 6.16165 67.6182 7.86391 67.171 9.45523C66.7238 11.0465 65.6841 12.4059 64.2657 13.2538C63.4243 13.8231 62.5026 14.2721 61.6291 14.7932C61.1963 15.0418 60.7796 15.3304 60.3628 15.595L60.4269 15.8757C61.02 15.8757 61.8214 16.036 62.6308 16.1322H62.6949C63.4514 16.2427 64.2186 16.2589 64.979 16.1804C66.9345 15.8516 67.9923 15.154 70.3565 15.9157C71.128 16.0336 71.9104 16.0632 72.6886 16.004C73.218 15.7728 73.7759 15.6137 74.3476 15.5309C74.9486 15.5309 77.0083 15.8276 78.002 15.8356C79.4206 15.8356 79.0519 15.7634 80.8711 15.2984C84.1409 14.4966 85.6075 11.6181 84.4134 8.47503C83.9003 7.15845 83.0752 5.9863 82.0091 5.05937C82.0996 5.04796 82.1911 5.04796 82.2816 5.05937C82.4315 5.1044 82.5786 5.15793 82.7224 5.21971C83.809 5.68567 84.7808 6.38346 85.5699 7.26427C86.3589 8.14509 86.9461 9.18769 87.2905 10.3192C87.8316 11.6464 87.8872 13.122 87.4473 14.4861C87.0075 15.8503 86.1005 17.0153 84.8862 17.7759C83.0926 19.0211 80.9908 19.7479 78.8115 19.8766C79.0454 20.8412 79.3646 21.783 79.7652 22.691C81.7046 26.0826 88.2121 25.0002 86.8016 31.1821C85.9281 35.0147 87.3145 35.5519 83.051 36.1612C72.6165 37.6285 71.0457 42.4073 69.7875 47.2101H69.7795ZM113.184 33.852V16.3728H103.808C105.506 17.0074 107.015 18.0643 108.191 19.4437C108.191 19.4437 104.032 17.9764 101.588 18.5377C100.752 18.7199 99.902 18.8299 99.0473 18.8664C99.3198 19.5479 99.9048 20.2455 101.532 20.7747C105.467 22.0736 107.943 20.9431 107.943 20.9431C107.943 20.9431 105.21 24.479 102.469 24.4389C99.7285 24.3988 96.4747 21.6486 95.3287 21.344C94.4788 21.1764 93.6144 21.0932 92.7481 21.0954V28.5201L92.8523 28.4319C93.0658 28.2458 93.3432 28.1502 93.6259 28.1651C93.9086 28.1801 94.1744 28.3045 94.367 28.5121C94.4912 28.7165 94.5406 28.9577 94.507 29.1945C94.4734 29.4313 94.3588 29.6492 94.1827 29.811C95.4608 30.8962 96.6261 32.1077 97.6608 33.4271C98.6102 34.8085 99.4158 36.2835 100.065 37.829C100.27 37.7051 100.512 37.658 100.749 37.6962C100.985 37.7344 101.2 37.8553 101.355 38.0375C101.497 38.2805 101.538 38.5696 101.469 38.8425C101.4 39.1154 101.227 39.3503 100.987 39.4967C100.902 39.5582 100.811 39.6094 100.714 39.6491C100.977 40.4981 101.136 41.3758 101.187 42.263C101.437 42.2281 101.689 42.2147 101.94 42.2229C103.591 42.271 104.345 42.4073 104.641 43.0648C104.955 42.6818 105.358 42.3815 105.815 42.19C106.272 41.9986 106.769 41.9218 107.262 41.9663C107.468 42.0052 107.677 42.0266 107.887 42.0304C108.173 41.1263 108.374 40.1976 108.488 39.2562C108.536 38.0615 106.885 34.1487 107.687 31.5108C108.488 28.8729 112.647 27.3254 112.647 27.3254C112.647 27.3254 110.828 29.37 110.892 33.5153C110.892 35.2231 111.405 35.9929 111.974 36.4499C112.266 35.6458 112.625 34.8679 113.048 34.1247C113.101 34.0365 113.149 33.9454 113.192 33.852H113.184ZM92.7722 68.0409H113.192V39.8896C112.468 40.7852 111.608 41.5617 110.644 42.1908C111.277 42.4634 111.381 43.1449 110.227 44.8367C109.619 45.7699 108.724 46.4793 107.677 46.857C106.63 47.2347 105.488 47.2601 104.425 46.9295C103.912 49.2787 101.692 47.3624 100.298 45.8791C99.9024 46.4465 99.4395 46.9635 98.9191 47.4185C100.547 47.8393 102.152 48.3452 103.728 48.934C103.88 49.0382 103.848 49.3268 103.728 49.6876C105.972 50.1206 111.029 51.171 111.702 52.093C111.8 52.2215 111.858 52.3769 111.866 52.5386C111.875 52.7003 111.834 52.8609 111.75 52.9991C112.062 53.174 112.301 53.4569 112.42 53.7948C112.54 54.1327 112.532 54.5025 112.399 54.8352C111.862 56.7435 112.086 59.3093 111.061 60.2955C109.996 61.1926 108.868 62.0125 107.687 62.749C107.687 62.749 110.556 56.8638 109.61 54.29C107.157 53.8549 104.787 53.0436 102.582 51.8846L102.509 51.9968C102.509 51.9968 99.3037 51.628 97.8852 50.7059C97.2514 50.3137 96.6766 49.8332 96.1782 49.2787C95.7775 49.5032 95.3768 49.7117 94.952 49.9122C96.4457 51.0787 97.8769 52.3232 99.2396 53.6405C99.3198 53.7849 99.1675 54.0414 98.911 54.3301C100.586 55.4446 104.321 58.0344 104.465 59.0847C104.493 59.2461 104.474 59.4122 104.41 59.563C104.346 59.7138 104.24 59.8428 104.104 59.9347C104.288 60.2291 104.361 60.5792 104.312 60.9227C104.262 61.2662 104.092 61.5809 103.832 61.8109C102.541 63.3744 101.588 65.7798 100.289 66.3411C99.0265 66.8123 97.7333 67.1981 96.4186 67.4957C96.4186 67.4957 100.426 63.4866 100.754 60.8407C100.145 60.6162 97.9413 57.5453 97.0117 55.9658L96.8995 56.0459C96.8995 56.0459 94.3911 54.6748 93.6217 53.3759C93.1086 52.6209 92.8298 51.7311 92.8203 50.8182H92.7642L92.7722 68.0409Z" fill="#262626"/>
</svg>
