<svg width="20" height="20" viewBox="0 0 20 20" fill="none" xmlns="http://www.w3.org/2000/svg">
<path fill-rule="evenodd" clip-rule="evenodd" d="M19.6343 17.5921C19.5015 17.7244 19.3413 17.8937 19.1715 18.0728C18.7478 18.5225 18.2184 19.0816 17.8866 19.3083C16.1409 20.5012 13.8054 19.9304 12.1534 19.2421C9.97418 18.3341 7.60156 16.6604 5.47121 14.5298C3.33887 12.399 1.66535 10.0257 0.757342 7.84765C0.0698416 6.19531 -0.502151 3.85937 0.690935 2.11328C0.917498 1.78125 1.47785 1.25269 1.92699 0.828121C2.10668 0.658824 2.27465 0.498863 2.40746 0.36648C2.64325 0.131862 2.96235 0.000152588 3.29498 0.000152588C3.62761 0.000152588 3.94671 0.131862 4.1825 0.36648L7.39453 3.57757C7.62902 3.81335 7.76065 4.13237 7.76065 4.4649C7.76065 4.79743 7.62902 5.11644 7.39453 5.35222L6.51953 6.22546C6.22731 6.51555 6.03657 6.89223 5.97569 7.29946C5.91482 7.70669 5.98706 8.12269 6.18168 8.48554C7.38518 10.757 9.24318 12.6147 11.5149 13.8178C11.8777 14.0124 12.2936 14.0846 12.7007 14.0236C13.1078 13.9626 13.4843 13.7717 13.7742 13.4795L14.647 12.6062C14.8828 12.3715 15.2019 12.2398 15.5345 12.2398C15.8672 12.2398 16.1863 12.3715 16.4221 12.6062L19.6343 15.8178C19.8688 16.0535 20.0004 16.3725 20.0004 16.7049C20.0004 17.0374 19.8688 17.3564 19.6343 17.5921Z" fill="#262626"/>
</svg>
