<svg width="22" height="21" viewBox="0 0 22 21" fill="none" xmlns="http://www.w3.org/2000/svg">
<path d="M19.602 21L13.7333 15.8294C13.0667 16.3706 12.3 16.799 11.4333 17.1147C10.5667 17.4304 9.64444 17.5882 8.66667 17.5882C6.24444 17.5882 4.19444 16.737 2.51667 15.0346C0.838889 13.3321 0 11.252 0 8.79412C0 6.33627 0.838889 4.25613 2.51667 2.55368C4.19444 0.851225 6.24444 0 8.66667 0C11.0889 0 13.1389 0.851225 14.8167 2.55368C16.4944 4.25613 17.3333 6.33627 17.3333 8.79412C17.3333 9.78627 17.1778 10.7221 16.8667 11.6015C16.5556 12.4809 16.1333 13.2588 15.6 13.9353L21.4686 19.1059L19.602 21ZM8.66667 14.8824C10.3333 14.8824 11.75 14.2904 12.9167 13.1066C14.0833 11.9228 14.6667 10.4853 14.6667 8.79412C14.6667 7.10294 14.0833 5.66544 12.9167 4.48162C11.75 3.29779 10.3333 2.70588 8.66667 2.70588C7 2.70588 5.58333 3.29779 4.41667 4.48162C3.25 5.66544 2.66667 7.10294 2.66667 8.79412C2.66667 10.4853 3.25 11.9228 4.41667 13.1066C5.58333 14.2904 7 14.8824 8.66667 14.8824Z" fill="#262626" fill-opacity="0.4"/>
</svg>
