<svg width="30" height="26" viewBox="0 0 30 26" fill="none" xmlns="http://www.w3.org/2000/svg">
<path d="M0.329403 1.10735C0.549107 0.887713 0.810099 0.777527 1.11062 0.777527H18.8887C19.1896 0.777527 19.4501 0.887713 19.6699 1.10735C19.8897 1.3273 19.9997 1.58787 19.9997 1.88875V5.22217H22.7777C23.0902 5.22217 23.4289 5.29739 23.7935 5.44783C24.1581 5.59852 24.4503 5.78337 24.6701 6.00332L28.1077 9.44091C28.2581 9.59135 28.3882 9.76484 28.4984 9.96174C28.6083 10.1581 28.6893 10.3351 28.7414 10.4911C28.7934 10.6475 28.8313 10.8613 28.8542 11.1336C28.8772 11.4057 28.8919 11.6053 28.8977 11.7327C28.9032 11.8599 28.9032 12.08 28.8977 12.3925C28.8918 12.7052 28.8889 12.9076 28.8889 13.0003V18.5558C29.1897 18.5558 29.4501 18.6657 29.6701 18.8859C29.89 19.1053 30 19.366 30 19.667C30 19.8403 29.977 19.9939 29.9307 20.1268C29.8843 20.26 29.8063 20.3669 29.6961 20.4481C29.6027 20.5176 29.5072 20.5843 29.4097 20.6479C29.3285 20.6999 29.1926 20.7345 29.0016 20.7519C28.8107 20.7694 28.6806 20.781 28.6111 20.7869C28.5416 20.7923 28.3941 20.7923 28.1684 20.7869C27.9425 20.781 27.8124 20.7781 27.7776 20.7781H26.6666C26.6666 22.0046 26.2325 23.0522 25.3646 23.9204C24.4964 24.7883 23.4491 25.2225 22.2221 25.2225C20.9953 25.2225 19.9478 24.7883 19.0798 23.9204C18.2117 23.0522 17.7778 22.0046 17.7778 20.7781H11.1109C11.1109 22.0046 10.6768 23.0522 9.8089 23.9204C8.9411 24.7883 7.89354 25.2225 6.6666 25.2225C5.43942 25.2225 4.39253 24.7883 3.5243 23.9204C2.65613 23.0522 2.22226 22.0046 2.22226 20.7781C2.18773 20.7781 2.05741 20.781 1.83187 20.7869C1.60609 20.7923 1.4585 20.7923 1.38906 20.7869C1.31949 20.781 1.18906 20.7694 0.99824 20.7519C0.807362 20.7345 0.671515 20.6999 0.590336 20.6479C0.509155 20.5958 0.413929 20.5293 0.303986 20.4481C0.193922 20.3669 0.115662 20.26 0.0695076 20.1268C0.0226841 19.9938 1.90735e-06 19.8403 1.90735e-06 19.667V1.88893C-0.000240326 1.58799 0.10964 1.32773 0.329403 1.10735ZM20.6599 22.3406C21.0995 22.7802 21.6205 23.0006 22.2224 23.0006C22.8242 23.0006 23.3451 22.7805 23.785 22.3406C24.2248 21.9011 24.4446 21.38 24.4446 20.7782C24.4446 20.1764 24.2246 19.6551 23.785 19.2154C23.3452 18.7759 22.8243 18.5557 22.2224 18.5557C21.6205 18.5557 21.0996 18.7757 20.6599 19.2154C20.2199 19.6551 20 20.1764 20 20.7782C20 21.38 20.2199 21.9011 20.6599 22.3406ZM20 11.889H26.6668V11.3683C26.6668 11.2178 26.6148 11.0905 26.5107 10.9862L23.1252 7.60089C23.0211 7.49667 22.8936 7.44473 22.7431 7.44473H20V11.889ZM5.10424 22.3406C5.54389 22.7802 6.06484 23.0006 6.6666 23.0006C7.26861 23.0006 7.78974 22.7805 8.22939 22.3406C8.6691 21.9011 8.8891 21.38 8.8891 20.7782C8.8891 20.1764 8.66916 19.6551 8.22939 19.2154C7.78974 18.7759 7.26861 18.5557 6.6666 18.5557C6.06484 18.5557 5.54389 18.7757 5.10424 19.2154C4.66453 19.6553 4.44434 20.1764 4.44434 20.7782C4.44434 21.38 4.6641 21.9011 5.10424 22.3406Z" fill="#262626"/>
</svg>
